<svg xmlns="http://www.w3.org/2000/svg" viewBox="0 0 800 600" width="800" height="600" role="img"><title>vox: document tab</title><defs>
      <pattern id="atelier-vox-document-tab-fibres" width="64" height="64" patternUnits="userSpaceOnUse"><path d="M0 0l2 -0.4" fill="none" stroke="#92795b" stroke-width=".45" stroke-linecap="round" stroke-linejoin="round" opacity=".5"/><path d="M23 17l3 0.0" fill="none" stroke="#92795b" stroke-width=".45" stroke-linecap="round" stroke-linejoin="round" opacity=".5"/><path d="M46 34l4 0.4" fill="none" stroke="#92795b" stroke-width=".45" stroke-linecap="round" stroke-linejoin="round" opacity=".5"/><path d="M5 51l5 -0.4" fill="none" stroke="#92795b" stroke-width=".45" stroke-linecap="round" stroke-linejoin="round" opacity=".5"/><path d="M28 4l2 0.0" fill="none" stroke="#92795b" stroke-width=".45" stroke-linecap="round" stroke-linejoin="round" opacity=".5"/><path d="M51 21l3 0.4" fill="none" stroke="#92795b" stroke-width=".45" stroke-linecap="round" stroke-linejoin="round" opacity=".5"/><path d="M10 38l4 -0.4" fill="none" stroke="#92795b" stroke-width=".45" stroke-linecap="round" stroke-linejoin="round" opacity=".5"/><path d="M33 55l5 0.0" fill="none" stroke="#92795b" stroke-width=".45" stroke-linecap="round" stroke-linejoin="round" opacity=".5"/><path d="M56 8l2 0.4" fill="none" stroke="#92795b" stroke-width=".45" stroke-linecap="round" stroke-linejoin="round" opacity=".5"/><path d="M15 25l3 -0.4" fill="none" stroke="#92795b" stroke-width=".45" stroke-linecap="round" stroke-linejoin="round" opacity=".5"/><path d="M38 42l4 0.0" fill="none" stroke="#92795b" stroke-width=".45" stroke-linecap="round" stroke-linejoin="round" opacity=".5"/><path d="M61 59l5 0.4" fill="none" stroke="#92795b" stroke-width=".45" stroke-linecap="round" stroke-linejoin="round" opacity=".5"/><path d="M20 12l2 -0.4" fill="none" stroke="#92795b" stroke-width=".45" stroke-linecap="round" stroke-linejoin="round" opacity=".5"/><path d="M43 29l3 0.0" fill="none" stroke="#92795b" stroke-width=".45" stroke-linecap="round" stroke-linejoin="round" opacity=".5"/><path d="M2 46l4 0.4" fill="none" stroke="#92795b" stroke-width=".45" stroke-linecap="round" stroke-linejoin="round" opacity=".5"/><path d="M25 63l5 -0.4" fill="none" stroke="#92795b" stroke-width=".45" stroke-linecap="round" stroke-linejoin="round" opacity=".5"/><path d="M48 16l2 0.0" fill="none" stroke="#92795b" stroke-width=".45" stroke-linecap="round" stroke-linejoin="round" opacity=".5"/><path d="M7 33l3 0.4" fill="none" stroke="#92795b" stroke-width=".45" stroke-linecap="round" stroke-linejoin="round" opacity=".5"/><path d="M30 50l4 -0.4" fill="none" stroke="#92795b" stroke-width=".45" stroke-linecap="round" stroke-linejoin="round" opacity=".5"/><path d="M53 3l5 0.0" fill="none" stroke="#92795b" stroke-width=".45" stroke-linecap="round" stroke-linejoin="round" opacity=".5"/><path d="M12 20l2 0.4" fill="none" stroke="#92795b" stroke-width=".45" stroke-linecap="round" stroke-linejoin="round" opacity=".5"/><path d="M35 37l3 -0.4" fill="none" stroke="#92795b" stroke-width=".45" stroke-linecap="round" stroke-linejoin="round" opacity=".5"/><path d="M58 54l4 0.0" fill="none" stroke="#92795b" stroke-width=".45" stroke-linecap="round" stroke-linejoin="round" opacity=".5"/><path d="M17 7l5 0.4" fill="none" stroke="#92795b" stroke-width=".45" stroke-linecap="round" stroke-linejoin="round" opacity=".5"/><path d="M40 24l2 -0.4" fill="none" stroke="#92795b" stroke-width=".45" stroke-linecap="round" stroke-linejoin="round" opacity=".5"/><path d="M63 41l3 0.0" fill="none" stroke="#92795b" stroke-width=".45" stroke-linecap="round" stroke-linejoin="round" opacity=".5"/><path d="M22 58l4 0.4" fill="none" stroke="#92795b" stroke-width=".45" stroke-linecap="round" stroke-linejoin="round" opacity=".5"/><path d="M45 11l5 -0.4" fill="none" stroke="#92795b" stroke-width=".45" stroke-linecap="round" stroke-linejoin="round" opacity=".5"/><path d="M4 28l2 0.0" fill="none" stroke="#92795b" stroke-width=".45" stroke-linecap="round" stroke-linejoin="round" opacity=".5"/><path d="M27 45l3 0.4" fill="none" stroke="#92795b" stroke-width=".45" stroke-linecap="round" stroke-linejoin="round" opacity=".5"/><path d="M50 62l4 -0.4" fill="none" stroke="#92795b" stroke-width=".45" stroke-linecap="round" stroke-linejoin="round" opacity=".5"/><path d="M9 15l5 0.0" fill="none" stroke="#92795b" stroke-width=".45" stroke-linecap="round" stroke-linejoin="round" opacity=".5"/><path d="M32 32l2 0.4" fill="none" stroke="#92795b" stroke-width=".45" stroke-linecap="round" stroke-linejoin="round" opacity=".5"/><path d="M55 49l3 -0.4" fill="none" stroke="#92795b" stroke-width=".45" stroke-linecap="round" stroke-linejoin="round" opacity=".5"/><path d="M14 2l4 0.0" fill="none" stroke="#92795b" stroke-width=".45" stroke-linecap="round" stroke-linejoin="round" opacity=".5"/><path d="M37 19l5 0.4" fill="none" stroke="#92795b" stroke-width=".45" stroke-linecap="round" stroke-linejoin="round" opacity=".5"/><path d="M60 36l2 -0.4" fill="none" stroke="#92795b" stroke-width=".45" stroke-linecap="round" stroke-linejoin="round" opacity=".5"/><path d="M19 53l3 0.0" fill="none" stroke="#92795b" stroke-width=".45" stroke-linecap="round" stroke-linejoin="round" opacity=".5"/><path d="M42 6l4 0.4" fill="none" stroke="#92795b" stroke-width=".45" stroke-linecap="round" stroke-linejoin="round" opacity=".5"/><path d="M1 23l5 -0.4" fill="none" stroke="#92795b" stroke-width=".45" stroke-linecap="round" stroke-linejoin="round" opacity=".5"/><path d="M24 40l2 0.0" fill="none" stroke="#92795b" stroke-width=".45" stroke-linecap="round" stroke-linejoin="round" opacity=".5"/><path d="M47 57l3 0.4" fill="none" stroke="#92795b" stroke-width=".45" stroke-linecap="round" stroke-linejoin="round" opacity=".5"/><path d="M6 10l4 -0.4" fill="none" stroke="#92795b" stroke-width=".45" stroke-linecap="round" stroke-linejoin="round" opacity=".5"/><path d="M29 27l5 0.0" fill="none" stroke="#92795b" stroke-width=".45" stroke-linecap="round" stroke-linejoin="round" opacity=".5"/><path d="M52 44l2 0.4" fill="none" stroke="#92795b" stroke-width=".45" stroke-linecap="round" stroke-linejoin="round" opacity=".5"/><path d="M11 61l3 -0.4" fill="none" stroke="#92795b" stroke-width=".45" stroke-linecap="round" stroke-linejoin="round" opacity=".5"/><path d="M34 14l4 0.0" fill="none" stroke="#92795b" stroke-width=".45" stroke-linecap="round" stroke-linejoin="round" opacity=".5"/><path d="M57 31l5 0.4" fill="none" stroke="#92795b" stroke-width=".45" stroke-linecap="round" stroke-linejoin="round" opacity=".5"/><path d="M16 48l2 -0.4" fill="none" stroke="#92795b" stroke-width=".45" stroke-linecap="round" stroke-linejoin="round" opacity=".5"/><path d="M39 1l3 0.0" fill="none" stroke="#92795b" stroke-width=".45" stroke-linecap="round" stroke-linejoin="round" opacity=".5"/><path d="M62 18l4 0.4" fill="none" stroke="#92795b" stroke-width=".45" stroke-linecap="round" stroke-linejoin="round" opacity=".5"/><path d="M21 35l5 -0.4" fill="none" stroke="#92795b" stroke-width=".45" stroke-linecap="round" stroke-linejoin="round" opacity=".5"/><path d="M44 52l2 0.0" fill="none" stroke="#92795b" stroke-width=".45" stroke-linecap="round" stroke-linejoin="round" opacity=".5"/><path d="M3 5l3 0.4" fill="none" stroke="#92795b" stroke-width=".45" stroke-linecap="round" stroke-linejoin="round" opacity=".5"/><path d="M26 22l4 -0.4" fill="none" stroke="#92795b" stroke-width=".45" stroke-linecap="round" stroke-linejoin="round" opacity=".5"/><path d="M49 39l5 0.0" fill="none" stroke="#92795b" stroke-width=".45" stroke-linecap="round" stroke-linejoin="round" opacity=".5"/><path d="M8 56l2 0.4" fill="none" stroke="#92795b" stroke-width=".45" stroke-linecap="round" stroke-linejoin="round" opacity=".5"/><path d="M31 9l3 -0.4" fill="none" stroke="#92795b" stroke-width=".45" stroke-linecap="round" stroke-linejoin="round" opacity=".5"/><path d="M54 26l4 0.0" fill="none" stroke="#92795b" stroke-width=".45" stroke-linecap="round" stroke-linejoin="round" opacity=".5"/><path d="M13 43l5 0.4" fill="none" stroke="#92795b" stroke-width=".45" stroke-linecap="round" stroke-linejoin="round" opacity=".5"/><path d="M36 60l2 -0.4" fill="none" stroke="#92795b" stroke-width=".45" stroke-linecap="round" stroke-linejoin="round" opacity=".5"/><path d="M59 13l3 0.0" fill="none" stroke="#92795b" stroke-width=".45" stroke-linecap="round" stroke-linejoin="round" opacity=".5"/><path d="M18 30l4 0.4" fill="none" stroke="#92795b" stroke-width=".45" stroke-linecap="round" stroke-linejoin="round" opacity=".5"/><path d="M41 47l5 -0.4" fill="none" stroke="#92795b" stroke-width=".45" stroke-linecap="round" stroke-linejoin="round" opacity=".5"/><path d="M0 0l2 0.0" fill="none" stroke="#92795b" stroke-width=".45" stroke-linecap="round" stroke-linejoin="round" opacity=".5"/></pattern>
      <linearGradient id="atelier-vox-document-tab-metal" x1=".1" y1="0" x2=".85" y2="1" gradientUnits="objectBoundingBox"><stop stop-color="#ffffff"/><stop offset=".17" stop-color="#b1b6c0"/><stop offset=".28" stop-color="#f5f8fc"/><stop offset=".35" stop-color="#20232d"/><stop offset=".48" stop-color="#8798a3"/><stop offset=".57" stop-color="#f3fbff"/><stop offset=".66" stop-color="#55596d"/><stop offset=".84" stop-color="#d8ddf1"/><stop offset="1" stop-color="#2b2d3b"/></linearGradient>
      <linearGradient id="atelier-vox-document-tab-iridescent" x2="1" y2="1"><stop stop-color="#dbfc76"/><stop offset=".24" stop-color="#51d6c9"/><stop offset=".5" stop-color="#8b79ee"/><stop offset=".75" stop-color="#f3a2b7"/><stop offset="1" stop-color="#fcce71"/></linearGradient>
      <linearGradient id="atelier-vox-document-tab-glass" x2="1" y2="1"><stop stop-color="#fbfffa" stop-opacity=".8"/><stop offset=".4" stop-color="#b6a3ef" stop-opacity=".35"/><stop offset="1" stop-color="#244bff" stop-opacity=".7"/></linearGradient>
      <radialGradient id="atelier-vox-document-tab-orb" cx=".3" cy=".2" r=".85"><stop stop-color="#ffffff"/><stop offset=".26" stop-color="#dae8ea"/><stop offset=".36" stop-color="#30354b"/><stop offset=".49" stop-color="#b1bac4"/><stop offset=".66" stop-color="#eefaf3"/><stop offset=".79" stop-color="#535779"/><stop offset="1" stop-color="#171b27"/></radialGradient>
      <linearGradient id="atelier-vox-document-tab-sky" x2="0" y2="1"><stop stop-color="#1e253f"/><stop offset=".52" stop-color="#b9799a"/><stop offset="1" stop-color="#f4c2a2"/></linearGradient>
      <filter id="atelier-vox-document-tab-shadow" x="-20%" y="-20%" width="150%" height="150%"><feDropShadow dx="7" dy="9" stdDeviation="1" flood-color="#171918" flood-opacity=".3"/></filter>
    </defs><g data-part="sheet"><path d="M140 133.55L168.89 129.01L197.78 129.12L226.67 132.08L255.56 125.26L284.44 133.33L313.33 124.36L342.22 131.46L371.11 126.72L400 127.53L428.89 130.38L457.78 124.24L486.67 132.57L515.56 123.97L544.44 131.75L573.33 127.07L602.22 128.73L631.11 131.54L660 126.06L665.09 130L656.08 149.44L662.88 168.89L658.21 188.33L658.49 207.78L661.35 227.22L654.7 246.67L662.82 266.11L653.93 285.56L661.23 305L656.49 324.44L657.58 343.89L660.42 363.33L654.51 382.78L662.91 402.22L654.42 421.67L662.36 441.11L657.63 460.56L659.49 480L660 483.22L631.11 476.29L602.22 484.36L573.33 475.32L544.44 482.23L515.56 477.48L486.67 477.97L457.78 480.78L428.89 474.34L400 482.52L371.11 473.74L342.22 481.25L313.33 476.52L284.44 477.89L255.56 480.71L226.67 475.02L197.78 483.46L168.89 475.03L140 483.1L139.37 480L139.49 460.56L142.44 441.11L135.6 421.67L143.65 402.22L134.64 382.78L141.69 363.33L136.9 343.89L137.64 324.44L140.43 305L134.22 285.56L142.48 266.11L133.82 246.67L141.54 227.22L136.81 207.78L138.43 188.33L141.21 168.89L135.7 149.44L144.14 130Z" fill="#f1eee5"/><path d="M140 133.55L168.89 129.01L197.78 129.12L226.67 132.08L255.56 125.26L284.44 133.33L313.33 124.36L342.22 131.46L371.11 126.72L400 127.53L428.89 130.38L457.78 124.24L486.67 132.57L515.56 123.97L544.44 131.75L573.33 127.07L602.22 128.73L631.11 131.54L660 126.06L665.09 130L656.08 149.44L662.88 168.89L658.21 188.33L658.49 207.78L661.35 227.22L654.7 246.67L662.82 266.11L653.93 285.56L661.23 305L656.49 324.44L657.58 343.89L660.42 363.33L654.51 382.78L662.91 402.22L654.42 421.67L662.36 441.11L657.63 460.56L659.49 480L660 483.22L631.11 476.29L602.22 484.36L573.33 475.32L544.44 482.23L515.56 477.48L486.67 477.97L457.78 480.78L428.89 474.34L400 482.52L371.11 473.74L342.22 481.25L313.33 476.52L284.44 477.89L255.56 480.71L226.67 475.02L197.78 483.46L168.89 475.03L140 483.1L139.37 480L139.49 460.56L142.44 441.11L135.6 421.67L143.65 402.22L134.64 382.78L141.69 363.33L136.9 343.89L137.64 324.44L140.43 305L134.22 285.56L142.48 266.11L133.82 246.67L141.54 227.22L136.81 207.78L138.43 188.33L141.21 168.89L135.7 149.44L144.14 130Z" fill="url(#atelier-vox-document-tab-fibres)" opacity=".36"/></g><g data-part="tab"><path d="M140 130V86h228l42 44Z" fill="#244bff"/></g><g data-part="rules"><path d="M193 210h410" fill="none" stroke="#171918" stroke-width="8" stroke-linecap="round" stroke-linejoin="round"/><path d="M193 257h335" fill="none" stroke="#171918" stroke-width="8" stroke-linecap="round" stroke-linejoin="round"/><path d="M193 304h390" fill="none" stroke="#171918" stroke-width="8" stroke-linecap="round" stroke-linejoin="round"/><path d="M193 351h275" fill="none" stroke="#171918" stroke-width="8" stroke-linecap="round" stroke-linejoin="round"/><path d="M193 398h320" fill="none" stroke="#171918" stroke-width="8" stroke-linecap="round" stroke-linejoin="round"/></g></svg>
