<svg xmlns="http://www.w3.org/2000/svg" viewBox="0 0 800 600" width="800" height="600" role="img"><title>stop: diecut frame</title><defs>
      <pattern id="atelier-stop-diecut-frame-fibres" width="64" height="64" patternUnits="userSpaceOnUse"><path d="M0 0l2 -0.4" fill="none" stroke="#92795b" stroke-width=".45" stroke-linecap="round" stroke-linejoin="round" opacity=".5"/><path d="M23 17l3 0.0" fill="none" stroke="#92795b" stroke-width=".45" stroke-linecap="round" stroke-linejoin="round" opacity=".5"/><path d="M46 34l4 0.4" fill="none" stroke="#92795b" stroke-width=".45" stroke-linecap="round" stroke-linejoin="round" opacity=".5"/><path d="M5 51l5 -0.4" fill="none" stroke="#92795b" stroke-width=".45" stroke-linecap="round" stroke-linejoin="round" opacity=".5"/><path d="M28 4l2 0.0" fill="none" stroke="#92795b" stroke-width=".45" stroke-linecap="round" stroke-linejoin="round" opacity=".5"/><path d="M51 21l3 0.4" fill="none" stroke="#92795b" stroke-width=".45" stroke-linecap="round" stroke-linejoin="round" opacity=".5"/><path d="M10 38l4 -0.4" fill="none" stroke="#92795b" stroke-width=".45" stroke-linecap="round" stroke-linejoin="round" opacity=".5"/><path d="M33 55l5 0.0" fill="none" stroke="#92795b" stroke-width=".45" stroke-linecap="round" stroke-linejoin="round" opacity=".5"/><path d="M56 8l2 0.4" fill="none" stroke="#92795b" stroke-width=".45" stroke-linecap="round" stroke-linejoin="round" opacity=".5"/><path d="M15 25l3 -0.4" fill="none" stroke="#92795b" stroke-width=".45" stroke-linecap="round" stroke-linejoin="round" opacity=".5"/><path d="M38 42l4 0.0" fill="none" stroke="#92795b" stroke-width=".45" stroke-linecap="round" stroke-linejoin="round" opacity=".5"/><path d="M61 59l5 0.4" fill="none" stroke="#92795b" stroke-width=".45" stroke-linecap="round" stroke-linejoin="round" opacity=".5"/><path d="M20 12l2 -0.4" fill="none" stroke="#92795b" stroke-width=".45" stroke-linecap="round" stroke-linejoin="round" opacity=".5"/><path d="M43 29l3 0.0" fill="none" stroke="#92795b" stroke-width=".45" stroke-linecap="round" stroke-linejoin="round" opacity=".5"/><path d="M2 46l4 0.4" fill="none" stroke="#92795b" stroke-width=".45" stroke-linecap="round" stroke-linejoin="round" opacity=".5"/><path d="M25 63l5 -0.4" fill="none" stroke="#92795b" stroke-width=".45" stroke-linecap="round" stroke-linejoin="round" opacity=".5"/><path d="M48 16l2 0.0" fill="none" stroke="#92795b" stroke-width=".45" stroke-linecap="round" stroke-linejoin="round" opacity=".5"/><path d="M7 33l3 0.4" fill="none" stroke="#92795b" stroke-width=".45" stroke-linecap="round" stroke-linejoin="round" opacity=".5"/><path d="M30 50l4 -0.4" fill="none" stroke="#92795b" stroke-width=".45" stroke-linecap="round" stroke-linejoin="round" opacity=".5"/><path d="M53 3l5 0.0" fill="none" stroke="#92795b" stroke-width=".45" stroke-linecap="round" stroke-linejoin="round" opacity=".5"/><path d="M12 20l2 0.4" fill="none" stroke="#92795b" stroke-width=".45" stroke-linecap="round" stroke-linejoin="round" opacity=".5"/><path d="M35 37l3 -0.4" fill="none" stroke="#92795b" stroke-width=".45" stroke-linecap="round" stroke-linejoin="round" opacity=".5"/><path d="M58 54l4 0.0" fill="none" stroke="#92795b" stroke-width=".45" stroke-linecap="round" stroke-linejoin="round" opacity=".5"/><path d="M17 7l5 0.4" fill="none" stroke="#92795b" stroke-width=".45" stroke-linecap="round" stroke-linejoin="round" opacity=".5"/><path d="M40 24l2 -0.4" fill="none" stroke="#92795b" stroke-width=".45" stroke-linecap="round" stroke-linejoin="round" opacity=".5"/><path d="M63 41l3 0.0" fill="none" stroke="#92795b" stroke-width=".45" stroke-linecap="round" stroke-linejoin="round" opacity=".5"/><path d="M22 58l4 0.4" fill="none" stroke="#92795b" stroke-width=".45" stroke-linecap="round" stroke-linejoin="round" opacity=".5"/><path d="M45 11l5 -0.4" fill="none" stroke="#92795b" stroke-width=".45" stroke-linecap="round" stroke-linejoin="round" opacity=".5"/><path d="M4 28l2 0.0" fill="none" stroke="#92795b" stroke-width=".45" stroke-linecap="round" stroke-linejoin="round" opacity=".5"/><path d="M27 45l3 0.4" fill="none" stroke="#92795b" stroke-width=".45" stroke-linecap="round" stroke-linejoin="round" opacity=".5"/><path d="M50 62l4 -0.4" fill="none" stroke="#92795b" stroke-width=".45" stroke-linecap="round" stroke-linejoin="round" opacity=".5"/><path d="M9 15l5 0.0" fill="none" stroke="#92795b" stroke-width=".45" stroke-linecap="round" stroke-linejoin="round" opacity=".5"/><path d="M32 32l2 0.4" fill="none" stroke="#92795b" stroke-width=".45" stroke-linecap="round" stroke-linejoin="round" opacity=".5"/><path d="M55 49l3 -0.4" fill="none" stroke="#92795b" stroke-width=".45" stroke-linecap="round" stroke-linejoin="round" opacity=".5"/><path d="M14 2l4 0.0" fill="none" stroke="#92795b" stroke-width=".45" stroke-linecap="round" stroke-linejoin="round" opacity=".5"/><path d="M37 19l5 0.4" fill="none" stroke="#92795b" stroke-width=".45" stroke-linecap="round" stroke-linejoin="round" opacity=".5"/><path d="M60 36l2 -0.4" fill="none" stroke="#92795b" stroke-width=".45" stroke-linecap="round" stroke-linejoin="round" opacity=".5"/><path d="M19 53l3 0.0" fill="none" stroke="#92795b" stroke-width=".45" stroke-linecap="round" stroke-linejoin="round" opacity=".5"/><path d="M42 6l4 0.4" fill="none" stroke="#92795b" stroke-width=".45" stroke-linecap="round" stroke-linejoin="round" opacity=".5"/><path d="M1 23l5 -0.4" fill="none" stroke="#92795b" stroke-width=".45" stroke-linecap="round" stroke-linejoin="round" opacity=".5"/><path d="M24 40l2 0.0" fill="none" stroke="#92795b" stroke-width=".45" stroke-linecap="round" stroke-linejoin="round" opacity=".5"/><path d="M47 57l3 0.4" fill="none" stroke="#92795b" stroke-width=".45" stroke-linecap="round" stroke-linejoin="round" opacity=".5"/><path d="M6 10l4 -0.4" fill="none" stroke="#92795b" stroke-width=".45" stroke-linecap="round" stroke-linejoin="round" opacity=".5"/><path d="M29 27l5 0.0" fill="none" stroke="#92795b" stroke-width=".45" stroke-linecap="round" stroke-linejoin="round" opacity=".5"/><path d="M52 44l2 0.4" fill="none" stroke="#92795b" stroke-width=".45" stroke-linecap="round" stroke-linejoin="round" opacity=".5"/><path d="M11 61l3 -0.4" fill="none" stroke="#92795b" stroke-width=".45" stroke-linecap="round" stroke-linejoin="round" opacity=".5"/><path d="M34 14l4 0.0" fill="none" stroke="#92795b" stroke-width=".45" stroke-linecap="round" stroke-linejoin="round" opacity=".5"/><path d="M57 31l5 0.4" fill="none" stroke="#92795b" stroke-width=".45" stroke-linecap="round" stroke-linejoin="round" opacity=".5"/><path d="M16 48l2 -0.4" fill="none" stroke="#92795b" stroke-width=".45" stroke-linecap="round" stroke-linejoin="round" opacity=".5"/><path d="M39 1l3 0.0" fill="none" stroke="#92795b" stroke-width=".45" stroke-linecap="round" stroke-linejoin="round" opacity=".5"/><path d="M62 18l4 0.4" fill="none" stroke="#92795b" stroke-width=".45" stroke-linecap="round" stroke-linejoin="round" opacity=".5"/><path d="M21 35l5 -0.4" fill="none" stroke="#92795b" stroke-width=".45" stroke-linecap="round" stroke-linejoin="round" opacity=".5"/><path d="M44 52l2 0.0" fill="none" stroke="#92795b" stroke-width=".45" stroke-linecap="round" stroke-linejoin="round" opacity=".5"/><path d="M3 5l3 0.4" fill="none" stroke="#92795b" stroke-width=".45" stroke-linecap="round" stroke-linejoin="round" opacity=".5"/><path d="M26 22l4 -0.4" fill="none" stroke="#92795b" stroke-width=".45" stroke-linecap="round" stroke-linejoin="round" opacity=".5"/><path d="M49 39l5 0.0" fill="none" stroke="#92795b" stroke-width=".45" stroke-linecap="round" stroke-linejoin="round" opacity=".5"/><path d="M8 56l2 0.4" fill="none" stroke="#92795b" stroke-width=".45" stroke-linecap="round" stroke-linejoin="round" opacity=".5"/><path d="M31 9l3 -0.4" fill="none" stroke="#92795b" stroke-width=".45" stroke-linecap="round" stroke-linejoin="round" opacity=".5"/><path d="M54 26l4 0.0" fill="none" stroke="#92795b" stroke-width=".45" stroke-linecap="round" stroke-linejoin="round" opacity=".5"/><path d="M13 43l5 0.4" fill="none" stroke="#92795b" stroke-width=".45" stroke-linecap="round" stroke-linejoin="round" opacity=".5"/><path d="M36 60l2 -0.4" fill="none" stroke="#92795b" stroke-width=".45" stroke-linecap="round" stroke-linejoin="round" opacity=".5"/><path d="M59 13l3 0.0" fill="none" stroke="#92795b" stroke-width=".45" stroke-linecap="round" stroke-linejoin="round" opacity=".5"/><path d="M18 30l4 0.4" fill="none" stroke="#92795b" stroke-width=".45" stroke-linecap="round" stroke-linejoin="round" opacity=".5"/><path d="M41 47l5 -0.4" fill="none" stroke="#92795b" stroke-width=".45" stroke-linecap="round" stroke-linejoin="round" opacity=".5"/><path d="M0 0l2 0.0" fill="none" stroke="#92795b" stroke-width=".45" stroke-linecap="round" stroke-linejoin="round" opacity=".5"/></pattern>
      <linearGradient id="atelier-stop-diecut-frame-metal" x1=".1" y1="0" x2=".85" y2="1" gradientUnits="objectBoundingBox"><stop stop-color="#ffffff"/><stop offset=".17" stop-color="#b1b6c0"/><stop offset=".28" stop-color="#f5f8fc"/><stop offset=".35" stop-color="#20232d"/><stop offset=".48" stop-color="#8798a3"/><stop offset=".57" stop-color="#f3fbff"/><stop offset=".66" stop-color="#55596d"/><stop offset=".84" stop-color="#d8ddf1"/><stop offset="1" stop-color="#2b2d3b"/></linearGradient>
      <linearGradient id="atelier-stop-diecut-frame-iridescent" x2="1" y2="1"><stop stop-color="#dbfc76"/><stop offset=".24" stop-color="#51d6c9"/><stop offset=".5" stop-color="#8b79ee"/><stop offset=".75" stop-color="#f3a2b7"/><stop offset="1" stop-color="#fcce71"/></linearGradient>
      <linearGradient id="atelier-stop-diecut-frame-glass" x2="1" y2="1"><stop stop-color="#fbfffa" stop-opacity=".8"/><stop offset=".4" stop-color="#b6a3ef" stop-opacity=".35"/><stop offset="1" stop-color="#244bff" stop-opacity=".7"/></linearGradient>
      <radialGradient id="atelier-stop-diecut-frame-orb" cx=".3" cy=".2" r=".85"><stop stop-color="#ffffff"/><stop offset=".26" stop-color="#dae8ea"/><stop offset=".36" stop-color="#30354b"/><stop offset=".49" stop-color="#b1bac4"/><stop offset=".66" stop-color="#eefaf3"/><stop offset=".79" stop-color="#535779"/><stop offset="1" stop-color="#171b27"/></radialGradient>
      <linearGradient id="atelier-stop-diecut-frame-sky" x2="0" y2="1"><stop stop-color="#1e253f"/><stop offset=".52" stop-color="#b9799a"/><stop offset="1" stop-color="#f4c2a2"/></linearGradient>
      <filter id="atelier-stop-diecut-frame-shadow" x="-20%" y="-20%" width="150%" height="150%"><feDropShadow dx="7" dy="9" stdDeviation="1" flood-color="#171918" flood-opacity=".3"/></filter>
    </defs><g data-part="object" filter="url(#atelier-stop-diecut-frame-shadow)"><g data-part="frame"><path d="M135 97.19L164.44 102.05L193.89 99.98L223.33 97.48L252.78 102.71L282.22 94.45L311.67 102.96L341.11 94.79L370.56 100.19L400 97.93L429.44 96.18L458.89 101.42L488.33 93.77L517.78 102.69L547.22 94.78L576.67 100.95L606.11 98.68L635.56 97.75L665 102.96L661.17 100L669.59 122.22L661.41 144.44L666.4 166.67L664.2 188.89L661.89 211.11L667.07 233.33L658.96 255.56L667.57 277.78L659.45 300L665.1 322.22L662.83 344.44L661.36 366.67L666.61 388.89L659.15 411.11L668.17 433.33L660.3 455.56L666.65 477.78L664.29 500L665 498.5L635.56 503.83L606.11 495.46L576.67 503.88L547.22 495.66L517.78 500.8L488.33 498.53L458.89 496.45L429.44 501.61L400 493.69L370.56 502.42L341.11 494.38L311.67 500.27L282.22 497.99L252.78 496.78L223.33 502.02L193.89 494.73L164.44 503.82L135 495.94L137.41 500L135.34 477.78L132.84 455.56L138.05 433.33L129.77 411.11L138.24 388.89L130.02 366.67L135.36 344.44L133.05 322.22L131.23 300L136.4 277.78L128.69 255.56L137.54 233.33L129.57 211.11L135.69 188.89L133.38 166.67L132.41 144.44L137.61 122.22L130.44 100ZM224 177v246h352V177Z" fill="#b6a3ef" fill-rule="evenodd"/></g><g data-part="inner-edge"><path d="M224 177v246h352V177Z" fill="none" stroke="#171918" stroke-width="2" stroke-linecap="round" stroke-linejoin="round"/></g><g data-part="tab"><rect x="576" y="280" width="96" height="45" rx="0" fill="#fa593d"/></g></g></svg>
